<?xml version="1.0" encoding="UTF-8"?>
<svg width="21px" height="24px" viewBox="0 0 21 24" version="1.1" xmlns="http://www.w3.org/2000/svg" xmlns:xlink="http://www.w3.org/1999/xlink">
    <title>android</title>
    <g id="Desktop" stroke="none" stroke-width="1" fill="none" fill-rule="evenodd">
        <g id="Apps-/-TV" transform="translate(-376.000000, -911.000000)" fill="#FFFFFF" fill-rule="nonzero">
            <path d="M379.15,920.248303 L379.15,926.454182 C379.15,927.279489 378.488281,927.938663 377.646094,927.938663 C376.809375,927.938663 376,927.27413 376,926.454182 L376,920.248303 C376,919.439073 376.809375,918.774541 377.646094,918.774541 C378.471875,918.774541 379.15,919.439073 379.15,920.248303 Z M379.740625,928.662146 C379.740625,929.541044 380.4625,930.24845 381.359375,930.24845 L382.447656,930.24845 L382.464062,933.522882 C382.464062,935.500403 385.482812,935.484326 385.482812,933.522882 L385.482812,930.24845 L387.517188,930.24845 L387.517188,933.522882 C387.517188,935.489685 390.552344,935.495044 390.552344,933.522882 L390.552344,930.24845 L391.657031,930.24845 C392.542969,930.24845 393.264844,929.541044 393.264844,928.662146 L393.264844,919.047857 L379.740625,919.047857 L379.740625,928.662146 Z M393.303125,918.52802 L379.680469,918.52802 C379.680469,916.23431 381.080469,914.240712 383.158594,913.20104 L382.114063,911.309265 C381.960937,911.046667 382.349219,910.880534 382.480469,911.105617 L383.541406,913.01347 C385.45,912.182804 387.642969,912.225677 389.464062,913.01347 L390.519531,911.110977 C390.65625,910.880534 391.039063,911.052026 390.885937,911.314624 L389.841406,913.20104 C391.903125,914.240712 393.303125,916.23431 393.303125,918.52802 L393.303125,918.52802 Z M383.967969,915.5537 C383.967969,915.248229 383.716406,914.990991 383.39375,914.990991 C383.082031,914.990991 382.835937,915.248229 382.835937,915.5537 C382.835937,915.859171 383.0875,916.116409 383.39375,916.116409 C383.716406,916.116409 383.967969,915.859171 383.967969,915.5537 Z M390.169531,915.5537 C390.169531,915.248229 389.917969,914.990991 389.611719,914.990991 C389.289062,914.990991 389.0375,915.248229 389.0375,915.5537 C389.0375,915.859171 389.289062,916.116409 389.611719,916.116409 C389.917969,916.116409 390.169531,915.859171 390.169531,915.5537 Z M395.353906,918.774541 C394.528125,918.774541 393.85,919.422996 393.85,920.248303 L393.85,926.454182 C393.85,927.279489 394.528125,927.938663 395.353906,927.938663 C396.196094,927.938663 397,927.27413 397,926.454182 L397,920.248303 C397,919.422996 396.190625,918.774541 395.353906,918.774541 Z" id="android"></path>
        </g>
    </g>
</svg>