<?xml version="1.0" encoding="UTF-8"?>
<svg width="19px" height="23px" viewBox="0 0 19 23" version="1.1" xmlns="http://www.w3.org/2000/svg" xmlns:xlink="http://www.w3.org/1999/xlink">
    <title>Mask Copy</title>
    <g id="Desktop" stroke="none" stroke-width="1" fill="none" fill-rule="evenodd">
        <g id="Apps-/-Fire-&amp;-BOX" transform="translate(-497.000000, -718.000000)" fill="#FFFFFF" fill-rule="nonzero">
            <path d="M507.67234,723.417504 C507.359042,723.51507 506.899202,723.597232 506.2625,723.653717 C506.318085,720.74213 507.773404,718.693235 510.709308,718 C511.179255,720.136191 509.390425,722.832105 507.67234,723.417504 L507.67234,723.417504 Z M513.801862,727.150703 C514.125266,726.668006 514.640691,726.128823 515.348138,725.522885 C514.221277,724.105604 512.917553,723.248046 511.047872,723.248046 C509.259042,723.248046 507.753192,724.18263 506.651596,724.18263 C505.716755,724.18263 504.028989,723.355883 502.381649,723.355883 C498.864628,723.355883 497,726.852869 497,730.493637 C497,734.540076 500.016755,741 503.073936,741 C504.276596,741 505.357979,740.075687 506.788032,740.075687 C508.268617,740.075687 509.456117,740.958919 510.845745,740.958919 C513.170213,740.958919 515.322872,736.979236 516,734.812235 C513.635106,734.077919 511.735106,730.180397 513.801862,727.150703 Z" id="Mask-Copy"></path>
        </g>
    </g>
</svg>