<?xml version="1.0" encoding="UTF-8"?>
<svg width="74px" height="59px" viewBox="0 0 74 59" version="1.1" xmlns="http://www.w3.org/2000/svg" xmlns:xlink="http://www.w3.org/1999/xlink">
    <title>web</title>
    <g id="Draft" stroke="none" stroke-width="1" fill="none" fill-rule="evenodd">
        <g id="web" fill="#030e2e" fill-rule="nonzero">
            <path d="M68.5435241,0 L5.45647586,0 C2.44311232,0.000393944247 0,2.41829116 0,5.40103999 L0,8.82811996 L74,8.82811996 L74,5.40103999 C74,2.41829116 71.5568877,0.000393944247 68.5435241,0 Z M5.96344037,6.26197554 C4.93305548,6.26131499 4.09830147,5.43397678 4.09896463,4.41406024 C4.09962858,3.39414369 4.93545841,2.56787038 5.9658433,2.56852666 C6.9962282,2.56918372 7.83098243,3.3965217 7.8303196,4.41643825 C7.83065845,4.9064194 7.63400207,5.37639396 7.28375155,5.72263987 C6.93350102,6.06888578 6.45844981,6.26293879 5.96344037,6.26197554 L5.96344037,6.26197554 Z M12.1431215,6.26197263 C11.1127366,6.26131499 10.2779826,5.43397678 10.2786458,4.41406024 C10.2793097,3.39414369 11.1151396,2.56787038 12.1455245,2.56852666 C13.1759094,2.56918372 14.0106636,3.3965217 14.0100007,4.41643825 C14.0097902,4.90625257 13.8129575,5.37591088 13.4628263,5.72203884 C13.1126951,6.06816681 12.6379631,6.26239472 12.1431215,6.26197263 L12.1431215,6.26197263 Z M18.3204,6.26197554 C17.2900151,6.26131499 16.4552611,5.43397678 16.4559243,4.41406024 C16.4565882,3.39414369 17.2924181,2.56787038 18.3228029,2.56852666 C19.3531878,2.56918372 20.1879421,3.3965217 20.1872792,4.41643825 C20.1876181,4.9064194 19.9909617,5.37639396 19.6407112,5.72263987 C19.2904607,6.06888578 18.8154094,6.26293879 18.3204,6.26197554 L18.3204,6.26197554 Z" id="Shape"></path>
            <path d="M0,10.9019671 L0,51.8342873 C0,55.7917685 3.24116053,59 7.23926101,59 L66.7631417,59 C70.7604192,58.9988837 74,55.7909541 74,51.8342873 L74,10.9019671 L0,10.9019671 Z M29.586545,30.6962673 L27.1262054,39.2865608 L25.8527874,39.2865608 L24.6634631,34.4230087 C24.4011921,33.4186997 24.1950502,32.4008436 24.0459755,31.3740729 L24.0195461,31.3740729 C23.8320791,32.4025289 23.5890603,33.4203005 23.2915354,34.4230087 L21.9484399,39.2865608 L20.6726192,39.2865608 L18.4669632,30.6796195 C18.4225808,30.503703 18.4624331,30.3173562 18.5750247,30.1743317 C18.6876162,30.0313072 18.8604257,29.9475108 19.0436053,29.947031 L19.0964642,29.947031 C19.3727242,29.9467853 19.6127283,30.1350636 19.6755089,30.4013625 L20.6870353,34.6727265 C20.9681483,35.8356982 21.2204292,36.9986698 21.3886165,37.9000322 L21.4150459,37.9000322 C21.5688172,36.9725089 21.8643462,35.8642373 22.1863048,34.6584569 L23.3275756,30.3847146 C23.3972105,30.1272384 23.6325377,29.9479066 23.901815,29.947031 L24.2502029,29.947031 C24.525499,29.9472483 24.764864,30.134042 24.8292477,30.3989842 L25.8672035,34.6846179 C26.1314978,35.7928894 26.3837787,36.9011609 26.5255365,37.8857627 L26.551966,37.8857627 C26.7489854,36.8607304 27.0156823,35.8214286 27.3088087,34.6584569 L28.4380662,30.3870929 C28.513663,30.1003325 28.7928488,29.9139184 29.0897791,29.9519401 C29.3867093,29.9899618 29.6087813,30.2405615 29.6081704,30.5369236 C29.6079207,30.5907381 29.6006526,30.6442956 29.586545,30.6962673 L29.586545,30.6962673 Z M42.5465762,30.6962673 L40.0862366,39.2865608 L38.8128186,39.2865608 L37.6234943,34.4230087 C37.3608668,33.4189179 37.1555141,32.4009978 37.0084094,31.3740729 L36.9795773,31.3740729 C36.7921102,32.4025289 36.5490915,33.4203005 36.2515666,34.4230087 L34.9084711,39.2865608 L33.6350531,39.2865608 L31.4293971,30.6796195 C31.384079,30.5036116 31.4235654,30.3167519 31.5363527,30.1734788 C31.64914,30.0302056 31.8225413,29.946635 32.0060392,29.9471053 L32.0564953,29.9471053 C32.3327553,29.9467853 32.5727595,30.1350636 32.6355401,30.4013625 L33.6470665,34.6727265 C33.9281795,35.8356982 34.1804604,36.9986698 34.3486477,37.9000322 L34.3750771,37.9000322 C34.531251,36.9725089 34.8243774,35.8642373 35.1463359,34.6584569 L36.2876067,30.3847146 C36.3576861,30.1265261 36.5941602,29.9471053 36.8642488,29.9471053 L37.2102341,29.9471053 C37.4857981,29.9464826 37.7255848,30.1336055 37.7892789,30.3989842 L38.8272347,34.6846179 C39.0939316,35.7928894 39.3462125,36.9011609 39.4855677,37.8857627 L39.5143998,37.8857627 C39.7090165,36.8607304 39.9757135,35.8214286 40.2688399,34.6584569 L41.3980973,30.3870929 C41.4741794,30.1007234 41.7529175,29.9145332 42.0496775,29.9518533 C42.3464376,29.9891733 42.5692831,30.2384419 42.5706038,30.5345453 C42.5706038,30.589331 42.5626056,30.6438294 42.5465762,30.6962673 L42.5465762,30.6962673 Z M55.5066074,30.6962673 L53.0486704,39.2865608 L51.7728498,39.2865608 L50.5835254,34.4230087 C50.3222762,33.4186059 50.1169389,32.400762 49.9684405,31.3740729 L49.9396084,31.3740729 C49.7521414,32.4025289 49.5091227,33.4203005 49.2115978,34.4230087 L47.8685022,39.2865608 L46.5950843,39.2865608 L44.3966363,30.7105369 C44.3420828,30.4969105 44.4075204,30.2707362 44.5680482,30.1180798 C44.7285759,29.9654234 44.9595088,29.9097596 45.1729702,29.97227 C45.3864317,30.0347804 45.5495968,30.2058526 45.6003766,30.4203886 L46.6095003,34.6727265 C46.8882107,35.8356982 47.1404916,36.9986698 47.3086789,37.9000322 L47.337511,37.9000322 C47.4912822,36.9725089 47.7844086,35.8642373 48.1063671,34.6584569 L49.2500406,30.3847146 C49.3190301,30.126813 49.5547523,29.9471802 49.82428,29.947064 L50.1702653,29.947064 C50.4458292,29.9464826 50.685616,30.1336055 50.74931,30.3989842 L51.7872658,34.6846179 C52.0539628,35.7928894 52.3062437,36.9011609 52.4455989,37.8857627 L52.474431,37.8857627 C52.6690477,36.8607304 52.9357447,35.8214286 53.2288711,34.6584569 L54.3581285,30.3870929 C54.4342106,30.1007234 54.7129487,29.9145332 55.0097087,29.9518533 C55.3064687,29.9891733 55.5293143,30.2384419 55.530635,30.5345453 C55.530635,30.589331 55.5226368,30.6438294 55.5066074,30.6962673 L55.5066074,30.6962673 Z" id="Shape"></path>
        </g>
    </g>
</svg>